<svg width="121" height="120" viewBox="0 0 121 120" fill="none" xmlns="http://www.w3.org/2000/svg">
<path d="M71.838 51.6661C75.863 51.6661 79.1296 54.9327 79.1296 58.9577V78.7452C79.1296 83.7191 77.1537 88.4893 73.6367 92.0064C70.1196 95.5235 65.3494 97.4994 60.3755 97.4994C55.4015 97.4994 50.6313 95.5235 47.1143 92.0064C43.5972 88.4893 41.6213 83.7191 41.6213 78.7452V58.9577C41.6213 54.9327 44.8838 51.6661 48.913 51.6661H71.838ZM71.838 57.9161H48.913C48.6367 57.9161 48.3717 58.0258 48.1764 58.2211C47.981 58.4165 47.8713 58.6815 47.8713 58.9577V78.7452C47.8713 82.0615 49.1887 85.242 51.5337 87.587C53.8787 89.932 57.0591 91.2494 60.3755 91.2494C63.6918 91.2494 66.8723 89.932 69.2172 87.587C71.5622 85.242 72.8796 82.0615 72.8796 78.7452V58.9577C72.8796 58.6815 72.7699 58.4165 72.5745 58.2211C72.3792 58.0258 72.1142 57.9161 71.838 57.9161ZM25.988 51.6661H40.0755C38.6055 53.4414 37.7077 55.6204 37.5005 57.9161H25.988C25.7117 57.9161 25.4467 58.0258 25.2514 58.2211C25.056 58.4165 24.9463 58.6815 24.9463 58.9577V72.4952C24.946 74.0697 25.3026 75.6238 25.9891 77.0408C26.6756 78.4577 27.6743 79.7007 28.9102 80.6763C30.146 81.6519 31.5869 82.3348 33.1245 82.6736C34.6621 83.0125 36.2565 82.9985 37.788 82.6327C38.1421 84.7327 38.788 86.7369 39.6755 88.5994C37.2058 89.2601 34.6173 89.3439 32.11 88.8444C29.6028 88.345 27.244 87.2755 25.2161 85.7188C23.1881 84.1621 21.5454 82.1599 20.4149 79.867C19.2844 77.574 18.6963 75.0517 18.6963 72.4952V58.9577C18.6963 54.9327 21.963 51.6661 25.988 51.6661ZM80.6755 51.6661H94.738C98.763 51.6661 102.03 54.9327 102.03 58.9577V72.4994C102.03 75.0542 101.443 77.575 100.315 79.867C99.1858 82.1589 97.5451 84.1607 95.5195 85.7176C93.4938 87.2745 91.1373 88.3449 88.6321 88.846C86.1269 89.3471 83.54 89.2656 81.0713 88.6077C81.963 86.7411 82.6088 84.7369 82.9671 82.6369C84.4967 82.9984 86.0882 83.0091 87.6224 82.6682C89.1566 82.3273 90.5938 81.6436 91.8264 80.6684C93.0589 79.6932 94.0548 78.4518 94.7394 77.037C95.424 75.6223 95.7796 74.071 95.7796 72.4994V58.9577C95.7796 58.6815 95.6699 58.4165 95.4745 58.2211C95.2792 58.0258 95.0142 57.9161 94.738 57.9161H83.2505C83.0432 55.6204 82.1455 53.4414 80.6755 51.6661ZM60.363 22.4994C63.6782 22.4994 66.8576 23.8164 69.2018 26.1606C71.546 28.5048 72.863 31.6842 72.863 34.9994C72.863 38.3146 71.546 41.494 69.2018 43.8382C66.8576 46.1824 63.6782 47.4994 60.363 47.4994C57.0478 47.4994 53.8683 46.1824 51.5241 43.8382C49.1799 41.494 47.863 38.3146 47.863 34.9994C47.863 31.6842 49.1799 28.5048 51.5241 26.1606C53.8683 23.8164 57.0478 22.4994 60.363 22.4994ZM87.4463 26.6661C90.209 26.6661 92.8585 27.7635 94.812 29.717C96.7655 31.6705 97.863 34.3201 97.863 37.0827C97.863 39.8454 96.7655 42.4949 94.812 44.4484C92.8585 46.4019 90.209 47.4994 87.4463 47.4994C84.6836 47.4994 82.0341 46.4019 80.0806 44.4484C78.1271 42.4949 77.0296 39.8454 77.0296 37.0827C77.0296 34.3201 78.1271 31.6705 80.0806 29.717C82.0341 27.7635 84.6836 26.6661 87.4463 26.6661ZM33.2796 26.6661C36.0423 26.6661 38.6918 27.7635 40.6453 29.717C42.5988 31.6705 43.6963 34.3201 43.6963 37.0827C43.6963 39.8454 42.5988 42.4949 40.6453 44.4484C38.6918 46.4019 36.0423 47.4994 33.2796 47.4994C30.517 47.4994 27.8674 46.4019 25.9139 44.4484C23.9604 42.4949 22.863 39.8454 22.863 37.0827C22.863 34.3201 23.9604 31.6705 25.9139 29.717C27.8674 27.7635 30.517 26.6661 33.2796 26.6661ZM60.363 28.7494C58.7054 28.7494 57.1156 29.4079 55.9435 30.58C54.7714 31.7521 54.113 33.3418 54.113 34.9994C54.113 36.657 54.7714 38.2467 55.9435 39.4188C57.1156 40.5909 58.7054 41.2494 60.363 41.2494C62.0206 41.2494 63.6103 40.5909 64.7824 39.4188C65.9545 38.2467 66.613 36.657 66.613 34.9994C66.613 33.3418 65.9545 31.7521 64.7824 30.58C63.6103 29.4079 62.0206 28.7494 60.363 28.7494ZM87.4463 32.9161C86.3412 32.9161 85.2814 33.355 84.5 34.1364C83.7186 34.9178 83.2796 35.9777 83.2796 37.0827C83.2796 38.1878 83.7186 39.2476 84.5 40.029C85.2814 40.8104 86.3412 41.2494 87.4463 41.2494C88.5514 41.2494 89.6112 40.8104 90.3926 40.029C91.174 39.2476 91.613 38.1878 91.613 37.0827C91.613 35.9777 91.174 34.9178 90.3926 34.1364C89.6112 33.355 88.5514 32.9161 87.4463 32.9161ZM33.2796 32.9161C32.1746 32.9161 31.1147 33.355 30.3333 34.1364C29.5519 34.9178 29.113 35.9777 29.113 37.0827C29.113 38.1878 29.5519 39.2476 30.3333 40.029C31.1147 40.8104 32.1746 41.2494 33.2796 41.2494C34.3847 41.2494 35.4445 40.8104 36.2259 40.029C37.0073 39.2476 37.4463 38.1878 37.4463 37.0827C37.4463 35.9777 37.0073 34.9178 36.2259 34.1364C35.4445 33.355 34.3847 32.9161 33.2796 32.9161Z" fill="white"/>
</svg>
