<svg width="121" height="120" viewBox="0 0 121 120" fill="none" xmlns="http://www.w3.org/2000/svg">
<path d="M106.932 23.6666C107.484 23.0742 107.784 22.2907 107.77 21.4811C107.756 20.6715 107.428 19.8991 106.855 19.3265C106.283 18.754 105.51 18.426 104.701 18.4117C103.891 18.3975 103.108 18.698 102.515 19.25L94.1319 27.6333C90.7207 25.2163 86.5646 24.0837 82.3988 24.436C78.2331 24.7883 74.3261 26.6027 71.3694 29.5583L66.9194 34.0125C65.553 35.3798 64.7855 37.2337 64.7855 39.1666C64.7855 41.0996 65.553 42.9535 66.9194 44.3208L81.8569 59.2625C82.534 59.9396 83.3378 60.4768 84.2226 60.8433C85.1073 61.2098 86.0555 61.3984 87.0131 61.3984C87.9707 61.3984 88.919 61.2098 89.8037 60.8433C90.6884 60.4768 91.4923 59.9396 92.1694 59.2625L96.6194 54.8125C99.5756 51.8562 101.391 47.9496 101.744 43.7838C102.097 39.618 100.965 35.4616 98.5485 32.05L106.932 23.6666ZM91.9944 33.9791L92.086 34.075L92.0985 34.0833L92.1069 34.0958L92.2027 34.1875C93.2673 35.2515 94.1118 36.5149 94.688 37.9055C95.2641 39.296 95.5607 40.7865 95.5607 42.2916C95.5607 43.7968 95.2641 45.2873 94.688 46.6778C94.1118 48.0683 93.2673 49.3317 92.2027 50.3958L87.7527 54.8416C87.6559 54.9386 87.541 55.0156 87.4144 55.0681C87.2879 55.1206 87.1522 55.1477 87.0152 55.1477C86.8782 55.1477 86.7425 55.1206 86.616 55.0681C86.4894 55.0156 86.3745 54.9386 86.2777 54.8416L71.336 39.9041C71.239 39.8074 71.1621 39.6924 71.1096 39.5659C71.057 39.4393 71.03 39.3037 71.03 39.1666C71.03 39.0296 71.057 38.894 71.1096 38.7674C71.1621 38.6408 71.239 38.5259 71.336 38.4291L75.786 33.9791C76.8501 32.9146 78.1135 32.0701 79.5041 31.4939C80.8946 30.9177 82.385 30.6212 83.8902 30.6212C85.3954 30.6212 86.8858 30.9177 88.2764 31.4939C89.6669 32.0701 90.9303 32.9146 91.9944 33.9791ZM61.0985 57C61.4056 56.7139 61.6518 56.3689 61.8226 55.9855C61.9934 55.6022 62.0853 55.1884 62.0927 54.7688C62.1001 54.3492 62.0229 53.9324 61.8657 53.5433C61.7085 53.1542 61.4746 52.8007 61.1779 52.504C60.8811 52.2072 60.5276 51.9733 60.1385 51.8161C59.7494 51.659 59.3326 51.5818 58.913 51.5892C58.4934 51.5966 58.0796 51.6884 57.6963 51.8592C57.313 52.03 56.968 52.2763 56.6819 52.5833L49.5152 59.75L47.5569 57.7916C46.9709 57.2064 46.1767 56.8777 45.3485 56.8777C44.5204 56.8777 43.7261 57.2064 43.1402 57.7916L35.7444 65.1875C32.7882 68.1437 30.973 72.0504 30.6199 76.2162C30.2668 80.382 31.3987 84.5384 33.8152 87.95L25.4319 96.3333C25.1248 96.6194 24.8786 96.9644 24.7078 97.3477C24.537 97.7311 24.4451 98.1449 24.4377 98.5645C24.4303 98.9841 24.5075 99.4008 24.6647 99.79C24.8219 100.179 25.0558 100.533 25.3525 100.829C25.6493 101.126 26.0028 101.36 26.3919 101.517C26.781 101.674 27.1978 101.752 27.6174 101.744C28.037 101.737 28.4508 101.645 28.8341 101.474C29.2174 101.303 29.5624 101.057 29.8485 100.75L38.2319 92.3666C41.6435 94.7831 45.7999 95.915 49.9657 95.5619C54.1315 95.2089 58.0381 93.3937 60.9944 90.4375L68.3902 83.0416C68.9754 82.4557 69.3041 81.6614 69.3041 80.8333C69.3041 80.0052 68.9754 79.2109 68.3902 78.625L66.4319 76.6666L73.5985 69.5C73.9056 69.2139 74.1518 68.8689 74.3226 68.4855C74.4934 68.1022 74.5853 67.6884 74.5927 67.2688C74.6001 66.8492 74.5229 66.4324 74.3657 66.0433C74.2085 65.6542 73.9746 65.3007 73.6779 65.004C73.3811 64.7072 73.0276 64.4733 72.6385 64.3161C72.2494 64.159 71.8326 64.0818 71.413 64.0892C70.9934 64.0966 70.5796 64.1884 70.1963 64.3592C69.813 64.53 69.468 64.7763 69.1819 65.0833L62.0152 72.25L53.9319 64.1666L61.0985 57ZM47.2902 66.3625L47.3069 66.375L47.3194 66.3916L59.7902 78.8625L59.8069 78.875L59.8194 78.8916L61.761 80.8333L56.5777 86.0208C55.5136 87.0854 54.2502 87.9299 52.8597 88.506C51.4692 89.0822 49.9787 89.3788 48.4735 89.3788C46.9684 89.3788 45.4779 89.0822 44.0874 88.506C42.6968 87.9299 41.4334 87.0854 40.3694 86.0208L40.161 85.8125C39.0965 84.7484 38.252 83.485 37.6758 82.0945C37.0996 80.7039 36.8031 79.2135 36.8031 77.7083C36.8031 76.2031 37.0996 74.7127 37.6758 73.3221C38.252 71.9316 39.0965 70.6682 40.161 69.6041L45.3485 64.425L47.2902 66.3625Z" fill="white"/>
</svg>
