<svg width="121" height="120" viewBox="0 0 121 120" fill="none" xmlns="http://www.w3.org/2000/svg">
<path d="M45.6622 24.718L44.5789 30.3013C44.3805 31.3261 43.9644 32.2964 43.3587 33.1465C42.753 33.9966 41.9719 34.7068 41.0681 35.229C40.1643 35.7512 39.1589 36.0733 38.1199 36.1735C37.0809 36.2736 36.0325 36.1496 35.0455 35.8096L29.6539 33.9471C28.6747 35.2805 27.8372 36.7221 27.1622 38.2513L31.4747 41.993C32.2632 42.6774 32.8954 43.5233 33.3287 44.4732C33.762 45.4232 33.9862 46.4551 33.9862 47.4992C33.9862 48.5433 33.762 49.5753 33.3287 50.5252C32.8954 51.4752 32.2632 52.321 31.4747 53.0055L27.1622 56.7471C27.8372 58.2763 28.6747 59.718 29.6539 61.0555L35.0455 59.193C36.0327 58.8523 37.0815 58.7277 38.121 58.8275C39.1605 58.9273 40.1665 59.2493 41.0708 59.7716C41.9751 60.2938 42.7566 61.0043 43.3626 61.8548C43.9685 62.7053 44.3847 63.676 44.583 64.7013L45.6664 70.2846C47.2997 70.4596 49.0122 70.4596 50.6455 70.2846L51.7289 64.7013C51.9273 63.6765 52.3434 62.7062 52.949 61.8561C53.5547 61.006 54.3359 60.2958 55.2397 59.7736C56.1435 59.2514 57.1489 58.9293 58.1879 58.8291C59.2269 58.729 60.2753 58.853 61.2622 59.193L66.6289 61.043C67.608 59.7096 68.4455 58.2596 69.1247 56.7263L64.833 53.0055C64.0446 52.321 63.4123 51.4752 62.979 50.5252C62.5457 49.5753 62.3215 48.5433 62.3215 47.4992C62.3215 46.4551 62.5457 45.4232 62.979 44.4732C63.4123 43.5233 64.0446 42.6774 64.833 41.993L69.1247 38.2721C68.4512 36.7464 67.6129 35.2989 66.6247 33.9555L61.2622 35.8096C60.275 36.1503 59.2262 36.2749 58.1867 36.1751C57.1472 36.0753 56.1413 35.7533 55.237 35.231C54.3327 34.7088 53.5511 33.9983 52.9451 33.1478C52.3392 32.2973 51.923 31.3266 51.7247 30.3013L50.6455 24.718C48.9891 24.5415 47.3186 24.5415 45.6622 24.718ZM42.4039 18.8972C46.2028 18.1389 50.1144 18.1417 53.9122 18.9055C54.5195 19.0281 55.0767 19.3284 55.5129 19.7684C55.9491 20.2083 56.2448 20.768 56.3622 21.3763L57.8622 29.1138C57.8904 29.2603 57.9499 29.3991 58.0364 29.5206C58.1229 29.6422 58.2346 29.7438 58.3638 29.8184C58.493 29.8931 58.6367 29.9392 58.7852 29.9535C58.9338 29.9678 59.0836 29.95 59.2247 29.9013L66.658 27.3346C67.2439 27.1319 67.8769 27.1081 68.4764 27.2661C69.0759 27.4241 69.6149 27.7569 70.0247 28.2221C72.5905 31.1303 74.5496 34.5216 75.7872 38.1971C75.9852 38.7843 76.0042 39.4171 75.8417 40.0151C75.6792 40.6131 75.3426 41.1492 74.8747 41.5555L68.933 46.7096C68.8201 46.8074 68.7295 46.9284 68.6674 47.0642C68.6053 47.2001 68.5732 47.3477 68.5732 47.4971C68.5732 47.6465 68.6053 47.7942 68.6674 47.93C68.7295 48.0659 68.8201 48.1868 68.933 48.2846L74.8747 53.443C75.833 54.2721 76.1955 55.5971 75.7914 56.7971C74.5526 60.4742 72.592 63.8669 70.0247 66.7763C69.6152 67.2407 69.077 67.573 68.4783 67.731C67.8796 67.889 67.2475 67.8656 66.6622 67.6638L59.2247 65.0971C59.0836 65.0485 58.9338 65.0307 58.7852 65.045C58.6367 65.0593 58.493 65.1053 58.3638 65.18C58.2346 65.2547 58.1229 65.3562 58.0364 65.4778C57.9499 65.5993 57.8904 65.7381 57.8622 65.8846L56.3622 73.6221C56.2448 74.2304 55.9491 74.7901 55.5129 75.2301C55.0767 75.67 54.5195 75.9704 53.9122 76.0929C50.1144 76.8567 46.2028 76.8595 42.4039 76.1013C41.795 75.9802 41.2361 75.6805 40.7982 75.2404C40.3604 74.8004 40.0635 74.2399 39.9455 73.6304L38.4455 65.8805C38.4168 65.7343 38.357 65.596 38.2703 65.4749C38.1835 65.3538 38.0718 65.2528 37.9427 65.1785C37.8135 65.1043 37.67 65.0586 37.5217 65.0446C37.3734 65.0305 37.2238 65.0484 37.083 65.0971L29.6247 67.6721C29.0388 67.8748 28.4058 67.8987 27.8063 67.7407C27.2068 67.5826 26.6679 67.2498 26.258 66.7846C23.6945 63.8811 21.7355 60.4957 20.4955 56.8263C20.2966 56.2385 20.2772 55.6049 20.4397 55.0061C20.6022 54.4072 20.9393 53.8703 21.408 53.4638L27.3747 48.293C27.4876 48.1952 27.5782 48.0742 27.6403 47.9384C27.7024 47.8025 27.7345 47.6549 27.7345 47.5055C27.7345 47.3561 27.7024 47.2084 27.6403 47.0726C27.5782 46.9367 27.4876 46.8158 27.3747 46.718L21.408 41.5346C20.9386 41.1286 20.6007 40.5919 20.4374 39.993C20.2742 39.3942 20.2929 38.7603 20.4914 38.1721C21.7321 34.5022 23.6926 31.1166 26.258 28.2138C26.6679 27.7486 27.2068 27.4158 27.8063 27.2578C28.4058 27.0997 29.0388 27.1236 29.6247 27.3263L37.083 29.9013C37.2244 29.95 37.3746 29.9676 37.5233 29.953C37.6721 29.9385 37.816 29.8921 37.9453 29.817C38.0745 29.7419 38.1861 29.6398 38.2724 29.5178C38.3588 29.3957 38.4178 29.2565 38.4455 29.1096L39.9455 21.368C40.0635 20.7585 40.3604 20.1981 40.7982 19.758C41.2361 19.3179 41.795 19.0183 42.4039 18.8972ZM68.7247 70.9763C68.3378 70.8336 67.9156 70.8172 67.5188 70.9295C67.1221 71.0418 66.7711 71.277 66.5164 71.6013C65.5872 72.8304 64.7997 74.1846 64.1914 75.6221C64.0381 76.0042 64.0101 76.425 64.1111 76.8241C64.2122 77.2231 64.4372 77.5799 64.7539 77.8429L68.9497 81.4888C69.1539 81.6667 69.3175 81.8864 69.4297 82.1329C69.5418 82.3794 69.5999 82.6471 69.5999 82.9179C69.5999 83.1888 69.5418 83.4565 69.4297 83.703C69.3175 83.9495 69.1539 84.1692 68.9497 84.3471L64.7497 87.9888C64.4338 88.2524 64.2096 88.6093 64.1092 89.0084C64.0089 89.4074 64.0377 89.8279 64.1914 90.2096C64.7997 91.6513 65.5872 93.0013 66.5205 94.2346C66.7747 94.5572 67.1242 94.7913 67.5193 94.9035C67.9143 95.0157 68.3347 95.0004 68.7205 94.8596L73.9705 93.0471C74.2269 92.9586 74.4994 92.9262 74.7694 92.952C75.0394 92.9778 75.3008 93.0613 75.5358 93.1968C75.7708 93.3322 75.974 93.5166 76.1316 93.7373C76.2893 93.958 76.3978 94.21 76.4497 94.4763L77.5039 99.9304C77.6664 100.764 78.3122 101.422 79.1497 101.526C80.691 101.717 82.25 101.717 83.7914 101.526C84.1993 101.469 84.5785 101.283 84.8742 100.996C85.17 100.71 85.3671 100.336 85.4372 99.9304L86.4914 94.4763C86.5433 94.21 86.6518 93.958 86.8094 93.7373C86.9671 93.5166 87.1703 93.3322 87.4053 93.1968C87.6403 93.0613 87.9016 92.9778 88.1717 92.952C88.4417 92.9262 88.7141 92.9586 88.9705 93.0471L94.2205 94.8596C94.6063 95.0004 95.0267 95.0157 95.4218 94.9035C95.8168 94.7913 96.1663 94.5572 96.4205 94.2346C97.3539 93.0013 98.1414 91.6513 98.7497 90.2096C98.9034 89.8279 98.9321 89.4074 98.8318 89.0084C98.7315 88.6093 98.5073 88.2524 98.1914 87.9888L93.9914 84.3471C93.7872 84.1692 93.6235 83.9495 93.5114 83.703C93.3992 83.4565 93.3412 83.1888 93.3412 82.9179C93.3412 82.6471 93.3992 82.3794 93.5114 82.1329C93.6235 81.8864 93.7872 81.6667 93.9914 81.4888L98.1914 77.8429C98.5073 77.5793 98.7315 77.2224 98.8318 76.8234C98.9321 76.4243 98.9034 76.0038 98.7497 75.6221C98.1432 74.1904 97.3608 72.8397 96.4205 71.6013C96.1661 71.2778 95.8158 71.0432 95.4199 70.9309C95.024 70.8187 94.6027 70.8345 94.2164 70.9763L88.9705 72.7888C88.7138 72.8772 88.4411 72.9095 88.1708 72.8835C87.9006 72.8574 87.639 72.7736 87.404 72.6376C87.1689 72.5017 86.9658 72.3169 86.8083 72.0957C86.6509 71.8745 86.5428 71.6221 86.4914 71.3554L85.4372 65.9054C85.3671 65.4995 85.17 65.1262 84.8742 64.8394C84.5785 64.5526 84.1993 64.3671 83.7914 64.3096C82.25 64.1188 80.691 64.1188 79.1497 64.3096C78.7418 64.3671 78.3626 64.5526 78.0668 64.8394C77.771 65.1262 77.5739 65.4995 77.5039 65.9054L76.4497 71.3554C76.3983 71.6221 76.2902 71.8745 76.1327 72.0957C75.9753 72.3169 75.7721 72.5017 75.5371 72.6376C75.302 72.7736 75.0405 72.8574 74.7702 72.8835C74.5 72.9095 74.2272 72.8772 73.9705 72.7888L68.7205 70.9763H68.7247ZM81.4705 88.1263C80.0881 88.1263 78.7623 87.5771 77.7847 86.5996C76.8072 85.622 76.258 84.2962 76.258 82.9138C76.258 81.5313 76.8072 80.2055 77.7847 79.228C78.7623 78.2504 80.0881 77.7013 81.4705 77.7013C82.853 77.7013 84.1788 78.2504 85.1563 79.228C86.1339 80.2055 86.683 81.5313 86.683 82.9138C86.683 84.2962 86.1339 85.622 85.1563 86.5996C84.1788 87.5771 82.853 88.1263 81.4705 88.1263ZM43.9705 47.5013C43.9705 46.3962 44.4095 45.3364 45.1909 44.555C45.9723 43.7736 47.0321 43.3346 48.1372 43.3346C49.2423 43.3346 50.3021 43.7736 51.0835 44.555C51.8649 45.3364 52.3039 46.3962 52.3039 47.5013C52.3039 48.6064 51.8649 49.6662 51.0835 50.4476C50.3021 51.229 49.2423 51.668 48.1372 51.668C47.0321 51.668 45.9723 51.229 45.1909 50.4476C44.4095 49.6662 43.9705 48.6064 43.9705 47.5013ZM48.1372 37.0846C45.3745 37.0846 42.725 38.1821 40.7715 40.1356C38.818 42.0891 37.7205 44.7386 37.7205 47.5013C37.7205 50.264 38.818 52.9135 40.7715 54.867C42.725 56.8205 45.3745 57.918 48.1372 57.918C50.8999 57.918 53.5494 56.8205 55.5029 54.867C57.4564 52.9135 58.5539 50.264 58.5539 47.5013C58.5539 44.7386 57.4564 42.0891 55.5029 40.1356C53.5494 38.1821 50.8999 37.0846 48.1372 37.0846Z" fill="white"/>
</svg>
