<svg width="121" height="120" viewBox="0 0 121 120" fill="none" xmlns="http://www.w3.org/2000/svg">
<g clip-path="url(#clip0_740_3434)">
<path d="M77.4849 35.0004C77.4849 30.5801 75.7289 26.3409 72.6033 23.2153C69.4777 20.0897 65.2385 18.3337 60.8182 18.3337C56.3979 18.3337 52.1587 20.0897 49.0331 23.2153C45.9075 26.3409 44.1515 30.5801 44.1515 35.0004V43.3337H36.8599C34.3735 43.3337 31.9889 44.3215 30.2307 46.0796C28.4726 47.8378 27.4849 50.2223 27.4849 52.7087V92.2921C27.4849 94.7785 28.4726 97.163 30.2307 98.9212C31.9889 100.679 34.3735 101.667 36.8599 101.667H56.6515V100.875C56.6515 98.9462 57.4182 97.0879 58.789 95.7212L59.0932 95.4171H36.8599C36.0311 95.4171 35.2362 95.0878 34.6502 94.5018C34.0641 93.9157 33.7349 93.1209 33.7349 92.2921V52.7087C33.7349 51.8799 34.0641 51.0851 34.6502 50.499C35.2362 49.913 36.0311 49.5837 36.8599 49.5837H84.7765C85.6053 49.5837 86.4002 49.913 86.9862 50.499C87.5723 51.0851 87.9015 51.8799 87.9015 52.7087V60.4629C89.9507 59.9979 92.0633 59.8796 94.1515 60.1129V52.7087C94.1515 51.4776 93.909 50.2585 93.4379 49.1211C92.9668 47.9837 92.2762 46.9502 91.4057 46.0796C90.5351 45.2091 89.5016 44.5185 88.3642 44.0474C87.2268 43.5762 86.0077 43.3337 84.7765 43.3337H77.4849V35.0004ZM67.0682 72.5004C67.0682 70.8428 66.4097 69.2531 65.2376 68.081C64.0655 66.9089 62.4758 66.2504 60.8182 66.2504C59.1606 66.2504 57.5709 66.9089 56.3988 68.081C55.2267 69.2531 54.5682 70.8428 54.5682 72.5004C54.5682 74.158 55.2267 75.7477 56.3988 76.9198C57.5709 78.0919 59.1606 78.7504 60.8182 78.7504C62.4758 78.7504 64.0655 78.0919 65.2376 76.9198C66.4097 75.7477 67.0682 74.158 67.0682 72.5004ZM50.4015 35.0004C50.4015 32.2377 51.499 29.5882 53.4525 27.6347C55.406 25.6812 58.0555 24.5837 60.8182 24.5837C63.5809 24.5837 66.2304 25.6812 68.1839 27.6347C70.1374 29.5882 71.2349 32.2377 71.2349 35.0004V43.3337H50.4015V35.0004ZM106.652 78.7504C106.652 82.6181 105.115 86.3275 102.38 89.0624C99.6453 91.7973 95.9359 93.3337 92.0682 93.3337H85.8182V97.5004C85.8182 98.0529 85.5987 98.5828 85.208 98.9735C84.8173 99.3642 84.2874 99.5837 83.7349 99.5837H79.5682V103.75C79.5682 104.303 79.3487 104.833 78.958 105.224C78.5673 105.614 78.0374 105.834 77.4849 105.834H73.3182V107.917C73.3182 108.47 73.0987 109 72.708 109.39C72.3173 109.781 71.7874 110 71.2349 110H63.9432C63.1144 110 62.3195 109.671 61.7335 109.085C61.1474 108.499 60.8182 107.704 60.8182 106.875V100.875C60.8189 100.047 61.1486 99.2526 61.7349 98.6671L77.3599 83.0421C77.5469 82.8552 77.7569 82.6928 77.9849 82.5587C77.4461 80.5545 77.3413 78.4583 77.6775 76.4103C78.0138 74.3623 78.7833 72.4096 79.9346 70.6828C81.0859 68.9561 82.5925 67.4949 84.3538 66.397C86.1151 65.2992 88.0904 64.5899 90.1477 64.3165C92.2051 64.0432 94.297 64.2122 96.2839 64.8121C98.2707 65.4121 100.107 66.4292 101.669 67.7955C103.231 69.1618 104.484 70.8458 105.343 72.735C106.202 74.6242 106.648 76.675 106.652 78.7504ZM94.1515 80.8337C95.2566 80.8337 96.3164 80.3948 97.0978 79.6134C97.8792 78.832 98.3182 77.7721 98.3182 76.6671C98.3182 75.562 97.8792 74.5022 97.0978 73.7208C96.3164 72.9394 95.2566 72.5004 94.1515 72.5004C93.0465 72.5004 91.9867 72.9394 91.2053 73.7208C90.4239 74.5022 89.9849 75.562 89.9849 76.6671C89.9849 77.7721 90.4239 78.832 91.2053 79.6134C91.9867 80.3948 93.0465 80.8337 94.1515 80.8337Z" fill="white"/>
</g>
<defs>
<clipPath id="clip0_740_3434">
<rect width="100" height="100" fill="white" transform="translate(10.8184 10)"/>
</clipPath>
</defs>
</svg>
