<svg width="121" height="120" viewBox="0 0 121 120" fill="none" xmlns="http://www.w3.org/2000/svg">
<path d="M22.7725 36.0417C22.7725 32.4502 24.1992 29.0058 26.7387 26.4663C29.2783 23.9267 32.7227 22.5 36.3141 22.5H84.2308C87.8223 22.5 91.2666 23.9267 93.8062 26.4663C96.3458 29.0058 97.7725 32.4502 97.7725 36.0417V58.125C96.0425 56.3586 93.8918 55.061 91.5225 54.3542V51.6667H74.8558V60.8167C73.4886 63.0852 72.7682 65.6846 72.7725 68.3333V68.5417C71.1349 68.877 69.602 69.6008 68.3026 70.6522C67.0032 71.7036 65.9754 73.0518 65.3058 74.5833H51.9391V91.25H64.4391V97.5H36.3141C32.7227 97.5 29.2783 96.0733 26.7387 93.5337C24.1992 90.9942 22.7725 87.5498 22.7725 83.9583V36.0417ZM36.3141 28.75C34.3803 28.75 32.5256 29.5182 31.1581 30.8857C29.7907 32.2531 29.0225 34.1078 29.0225 36.0417V45.4167H45.6891V28.75H36.3141ZM29.0225 51.6667V68.3333H45.6891V51.6667H29.0225ZM51.9391 51.6667V68.3333H68.6058V51.6667H51.9391ZM74.8558 45.4167H91.5225V36.0417C91.5225 34.1078 90.7542 32.2531 89.3868 30.8857C88.0193 29.5182 86.1647 28.75 84.2308 28.75H74.8558V45.4167ZM68.6058 28.75H51.9391V45.4167H68.6058V28.75ZM29.0225 74.5833V83.9583C29.0225 87.9833 32.2891 91.25 36.3141 91.25H45.6891V74.5833H29.0225ZM76.9391 72.5H74.8558C73.1982 72.5 71.6085 73.1585 70.4364 74.3306C69.2643 75.5027 68.6058 77.0924 68.6058 78.75V99.5833C68.6058 101.241 69.2643 102.831 70.4364 104.003C71.6085 105.175 73.1982 105.833 74.8558 105.833H99.8558C101.513 105.833 103.103 105.175 104.275 104.003C105.447 102.831 106.106 101.241 106.106 99.5833V78.75C106.106 77.0924 105.447 75.5027 104.275 74.3306C103.103 73.1585 101.513 72.5 99.8558 72.5H97.7725V68.3333C97.7725 65.5707 96.675 62.9211 94.7215 60.9676C92.768 59.0141 90.1185 57.9167 87.3558 57.9167C84.5931 57.9167 81.9436 59.0141 79.9901 60.9676C78.0366 62.9211 76.9391 65.5707 76.9391 68.3333V72.5ZM83.1891 68.3333C83.1891 67.2283 83.6281 66.1685 84.4095 65.3871C85.1909 64.6057 86.2507 64.1667 87.3558 64.1667C88.4609 64.1667 89.5207 64.6057 90.3021 65.3871C91.0835 66.1685 91.5225 67.2283 91.5225 68.3333V72.5H83.1891V68.3333ZM91.5225 89.1667C91.5225 90.2717 91.0835 91.3316 90.3021 92.113C89.5207 92.8944 88.4609 93.3333 87.3558 93.3333C86.2507 93.3333 85.1909 92.8944 84.4095 92.113C83.6281 91.3316 83.1891 90.2717 83.1891 89.1667C83.1891 88.0616 83.6281 87.0018 84.4095 86.2204C85.1909 85.439 86.2507 85 87.3558 85C88.4609 85 89.5207 85.439 90.3021 86.2204C91.0835 87.0018 91.5225 88.0616 91.5225 89.1667Z" fill="white"/>
</svg>
