<svg width="120" height="120" viewBox="0 0 120 120" fill="none" xmlns="http://www.w3.org/2000/svg">
<path d="M17.5 60C17.5 48.7283 21.9777 37.9183 29.948 29.948C37.9183 21.9777 48.7283 17.5 60 17.5C71.2717 17.5 82.0817 21.9777 90.052 29.948C98.0223 37.9183 102.5 48.7283 102.5 60C102.5 71.2717 98.0223 82.0817 90.052 90.052C82.0817 98.0223 71.2717 102.5 60 102.5C48.7283 102.5 37.9183 98.0223 29.948 90.052C21.9777 82.0817 17.5 71.2717 17.5 60ZM60 10C32.385 10 10 32.385 10 60C10 87.615 32.385 110 60 110C87.615 110 110 87.615 110 60C110 32.385 87.615 10 60 10ZM59.965 33.24C59.8355 32.2987 59.3535 31.4417 58.6165 30.8422C57.8795 30.2426 56.9423 29.9451 55.9944 30.0099C55.0465 30.0746 54.1585 30.4968 53.5099 31.191C52.8612 31.8853 52.5003 32.7999 52.5 33.75V63.75L52.535 64.26C52.6582 65.1578 53.1024 65.9805 53.7853 66.5762C54.4683 67.1718 55.3438 67.5 56.25 67.5H76.25L76.76 67.465C77.7012 67.3355 78.5583 66.8535 79.1578 66.1165C79.7574 65.3795 80.0549 64.4423 79.9901 63.4944C79.9254 62.5465 79.5032 61.6585 78.809 61.0099C78.1147 60.3612 77.2001 60.0003 76.25 60H60V33.75L59.965 33.24Z" fill="white"/>
</svg>
