<svg width="121" height="120" viewBox="0 0 121 120" fill="none" xmlns="http://www.w3.org/2000/svg">
<path d="M60.4615 82.5109C61.3687 82.5097 62.2455 82.8374 62.9296 83.4332C63.6137 84.029 64.0587 84.8526 64.182 85.7514L64.217 86.2614V97.2031L67.8176 93.6125C68.4526 92.9774 69.2945 92.5912 70.1902 92.5242C71.0859 92.4572 71.9759 92.7138 72.6983 93.2475L73.1184 93.6125C73.7528 94.2482 74.1381 95.0904 74.2042 95.9861C74.2702 96.8818 74.0127 97.7714 73.4784 98.4933L73.1184 98.9133L63.1169 108.915L62.9269 109.095L62.5668 109.37L62.0917 109.645L61.6567 109.82L61.1466 109.95L60.7215 110.005H60.2064L59.6064 109.915L59.2663 109.815L58.9713 109.705L58.6212 109.53L58.3612 109.37L58.2061 109.26C58.0666 109.154 57.9346 109.039 57.8111 108.915L47.8096 98.9133C47.1385 98.2441 46.7457 97.3456 46.7101 96.3986C46.6745 95.4515 46.9987 94.5261 47.6176 93.8084C48.2365 93.0906 49.1042 92.6338 50.0462 92.5298C50.9882 92.4257 51.9347 92.6821 52.6953 93.2475L53.1154 93.6125L56.7159 97.2081V86.2564C56.7172 85.351 57.0459 84.4765 57.6415 83.7945C58.2371 83.1125 59.0594 82.669 59.9564 82.5459L60.4615 82.5109ZM60.4615 45.0052C64.4403 45.0052 68.2562 46.5858 71.0697 49.3993C73.8831 52.2128 75.4637 56.0287 75.4637 60.0075C75.4637 63.9863 73.8831 67.8022 71.0697 70.6157C68.2562 73.4292 64.4403 75.0098 60.4615 75.0098C56.4826 75.0098 52.6668 73.4292 49.8533 70.6157C47.0398 67.8022 45.4592 63.9863 45.4592 60.0075C45.4592 56.0287 47.0398 52.2128 49.8533 49.3993C52.6668 46.5858 56.4826 45.0052 60.4615 45.0052ZM94.0665 47.3556C94.7019 46.7191 95.5447 46.3321 96.4416 46.2651C97.3384 46.1981 98.2294 46.4555 98.9523 46.9906L99.3723 47.3506L109.374 57.3521L109.554 57.5471L109.829 57.9072L110.104 58.3823L110.279 58.8123L110.409 59.3274L110.459 59.7475V60.2625L110.374 60.8626L110.274 61.2027L110.164 61.4977L109.989 61.8478L109.829 62.1078L109.689 62.2978L109.374 62.6579L99.3723 72.6594C98.7022 73.3243 97.806 73.712 96.8626 73.7453C95.9193 73.7785 94.998 73.4547 94.2828 72.8386C93.5676 72.2225 93.111 71.3594 93.0042 70.4215C92.8974 69.4835 93.1481 68.5398 93.7065 67.7787L94.0665 67.3536L97.6621 63.7531H86.7154C85.809 63.7544 84.9327 63.4274 84.2488 62.8326C83.5648 62.2378 83.1194 61.4154 82.9949 60.5176L82.9699 60.0075C82.9699 59.1012 83.2981 58.2255 83.8938 57.5425C84.4895 56.8594 85.3124 56.4152 86.2104 56.2919L86.7204 56.2569H97.6671L94.0665 52.6564C93.4321 52.0207 93.0468 51.1785 92.9807 50.2829C92.9147 49.3872 93.1722 48.4975 93.7065 47.7757L94.0665 47.3556ZM21.5556 47.3556C22.224 46.6828 23.1225 46.2882 24.0701 46.2512C25.0178 46.2142 25.9442 46.5376 26.663 47.1562C27.3818 47.7749 27.8396 48.6429 27.9441 49.5854C28.0487 50.528 27.7922 51.4752 27.2265 52.2363L26.8614 52.6564L23.2609 56.2569H34.2125C35.1189 56.257 35.9945 56.5852 36.6776 57.1809C37.3606 57.7766 37.8048 58.5995 37.9281 59.4974L37.9581 60.0075C37.9579 60.9146 37.629 61.7908 37.0323 62.474C36.4355 63.1572 35.6114 63.6009 34.7126 63.7231L34.2075 63.7581H23.2559L26.8564 67.3586C27.4916 67.9936 27.8778 68.8355 27.9448 69.7312C28.0118 70.6269 27.7551 71.5169 27.2215 72.2393L26.8564 72.6594C26.2211 73.2959 25.3782 73.6829 24.4814 73.7499C23.5846 73.8169 22.6936 73.5595 21.9707 73.0245L21.5506 72.6594L11.5491 62.6579L11.0991 62.1078L10.824 61.6327L10.644 61.2027L10.514 60.6876L10.459 60.2375V59.7725L10.549 59.1474L10.649 58.8123L10.759 58.5123L10.9341 58.1622L11.0941 57.9022L11.2091 57.7522C11.313 57.6111 11.4266 57.4774 11.5491 57.3521L21.5556 47.3556ZM60.4615 52.5064C58.4721 52.5064 56.5641 53.2967 55.1574 54.7034C53.7507 56.1101 52.9604 58.0181 52.9604 60.0075C52.9604 61.9969 53.7507 63.9049 55.1574 65.3116C56.5641 66.7183 58.4721 67.5086 60.4615 67.5086C62.4509 67.5086 64.3588 66.7183 65.7656 65.3116C67.1723 63.9049 67.9626 61.9969 67.9626 60.0075C67.9626 58.0181 67.1723 56.1101 65.7656 54.7034C64.3588 53.2967 62.4509 52.5064 60.4615 52.5064ZM59.7814 10.06L60.1164 10.015L60.5515 10L60.8515 10.02L61.3216 10.1L61.6617 10.195L61.9567 10.305L62.3068 10.4851L62.5668 10.6451L62.7568 10.7801L63.1169 11.0952L73.1184 21.0967C73.798 21.764 74.1983 22.6649 74.238 23.6165C74.2777 24.5682 73.9539 25.4993 73.3322 26.2209C72.7105 26.9426 71.8375 27.4006 70.8904 27.5021C69.9434 27.6036 68.9932 27.341 68.2326 26.7675L67.8126 26.4025L64.2121 22.8019V33.7536C64.212 34.6599 63.8838 35.5355 63.2881 36.2186C62.6924 36.9016 61.8695 37.3459 60.9716 37.4691L60.4665 37.5041C59.5593 37.5053 58.6824 37.1776 57.9983 36.5818C57.3143 35.986 56.8693 35.1624 56.7459 34.2636L56.7159 33.7536V22.8019L53.1154 26.4025C52.4801 27.039 51.6372 27.426 50.7404 27.493C49.8435 27.56 48.9525 27.3025 48.2296 26.7675L47.8096 26.4025C47.1752 25.7668 46.7899 24.9246 46.7238 24.0289C46.6577 23.1332 46.9152 22.2436 47.4495 21.5217L47.8096 21.0967L57.8111 11.0952L58.3612 10.6451L58.8362 10.3701L59.2713 10.195L59.7814 10.06Z" fill="white"/>
</svg>
