<svg width="121" height="120" viewBox="0 0 121 120" fill="none" xmlns="http://www.w3.org/2000/svg">
<path d="M22.5911 41.2952C20.674 42.5188 19.0964 44.206 18.004 46.2007C16.9116 48.1955 16.3396 50.4334 16.3411 52.7077V77.7077C16.3411 89.791 26.1327 99.5827 38.2161 99.5827H75.7161C80.5077 99.5827 84.7202 97.091 87.1286 93.3327H38.2161C34.0721 93.3327 30.0978 91.6865 27.1675 88.7562C24.2373 85.826 22.5911 81.8517 22.5911 77.7077V41.2952ZM88.2161 26.666H40.2994C36.8405 26.6658 33.5126 27.9892 30.9984 30.3646C28.4843 32.7401 26.9744 35.9877 26.7786 39.441L26.7577 40.2077V75.6243C26.7575 79.0833 28.0809 82.4111 30.4564 84.9253C32.8319 87.4395 36.0794 88.9494 39.5327 89.1452L40.2994 89.166H88.2161C91.675 89.1662 95.0029 87.8429 97.517 85.4674C100.031 83.0919 101.541 79.8444 101.737 76.391L101.758 75.6243V40.2077C101.758 36.7488 100.435 33.4209 98.0591 30.9067C95.6836 28.3925 92.4361 26.8827 88.9827 26.6868L88.2161 26.666ZM33.0077 47.0785L62.7994 62.766C63.1831 62.9679 63.6047 63.0877 64.0372 63.1178C64.4698 63.148 64.9039 63.0877 65.3119 62.941L65.7119 62.766L95.5077 47.0827V75.6243C95.5076 77.455 94.8189 79.2186 93.5784 80.5648C92.3379 81.911 90.6364 82.7414 88.8119 82.891L88.2161 82.916H40.2994C38.4688 82.9159 36.7052 82.2271 35.359 80.9867C34.0127 79.7462 33.1823 78.0447 33.0327 76.2202L33.0077 75.6243V47.0785ZM40.2994 32.916H88.2161C90.046 32.9161 91.8091 33.6042 93.1552 34.8438C94.5013 36.0835 95.3322 37.7839 95.4827 39.6077L95.4994 40.0243L64.2577 56.466L33.0077 40.0202C33.0566 38.119 33.8464 36.3121 35.2086 34.985C36.5708 33.6578 38.3976 32.9154 40.2994 32.916Z" fill="white"/>
</svg>
