<svg width="121" height="120" viewBox="0 0 121 120" fill="none" xmlns="http://www.w3.org/2000/svg">
<path d="M86.769 39.1667C86.769 40.5481 86.2202 41.8728 85.2435 42.8496C84.2667 43.8263 82.942 44.3751 81.5606 44.3751C80.1793 44.3751 78.8545 43.8263 77.8778 42.8496C76.901 41.8728 76.3523 40.5481 76.3523 39.1667C76.3523 37.7854 76.901 36.4607 77.8778 35.4839C78.8545 34.5071 80.1793 33.9584 81.5606 33.9584C82.942 33.9584 84.2667 34.5071 85.2435 35.4839C86.2202 36.4607 86.769 37.7854 86.769 39.1667ZM75.3106 18.5417C68.0738 18.5462 61.1346 21.4229 56.0174 26.5402C50.9002 31.6574 48.0234 38.5966 48.019 45.8334C48.019 47.4459 48.2273 49.0001 48.4773 50.4334C48.514 50.6138 48.5066 50.8004 48.4558 50.9774C48.405 51.1544 48.3124 51.3165 48.1856 51.4501L22.2065 77.4334C20.0573 79.5813 18.8493 82.4949 18.8481 85.5334V94.5834C18.8481 98.6084 22.1148 101.875 26.1398 101.875H36.5565C38.4903 101.875 40.345 101.107 41.7125 99.7394C43.0799 98.372 43.8481 96.5173 43.8481 94.5834V89.3751H51.144C54.019 89.3751 56.3523 87.0417 56.3523 84.1667V76.8751H63.644C64.9927 76.876 66.2893 76.3536 67.2607 75.418C68.2321 74.4823 68.8027 73.2063 68.8523 71.8584C70.919 72.3918 73.1023 72.7084 75.3106 72.7084C82.5475 72.704 89.4867 69.8272 94.6039 64.71C99.7211 59.5928 102.598 52.6536 102.602 45.4167C102.602 30.2876 90.2981 18.5417 75.3106 18.5417ZM54.269 45.8334C54.2734 40.2542 56.4917 34.9047 60.4368 30.9596C64.3819 27.0145 69.7314 24.7962 75.3106 24.7917C86.9856 24.7917 96.3523 33.8792 96.3523 45.4167C96.3479 50.996 94.1296 56.3455 90.1845 60.2906C86.2394 64.2357 80.8899 66.454 75.3106 66.4584C72.4773 66.4584 69.5606 65.7459 66.9565 64.6251C66.4808 64.4208 65.9619 64.3378 65.4463 64.3837C64.9306 64.4296 64.4345 64.6028 64.0024 64.8878C63.5703 65.1729 63.2157 65.5608 62.9706 66.0168C62.7255 66.4727 62.5975 66.9824 62.5981 67.5001V70.6251H55.3106C52.4356 70.6251 50.1023 72.9584 50.1023 75.8334V83.1251H42.8106C39.9356 83.1251 37.6023 85.4584 37.6023 88.3334V94.5834C37.6023 94.8597 37.4926 95.1246 37.2972 95.32C37.1019 95.5153 36.8369 95.6251 36.5606 95.6251H26.144C25.8677 95.6251 25.6028 95.5153 25.4074 95.32C25.2121 95.1246 25.1023 94.8597 25.1023 94.5834V85.5334C25.1023 84.1543 25.6523 82.8251 26.6273 81.8501L52.6106 55.8709C53.447 55.0273 54.0677 53.9946 54.4202 52.8603C54.7727 51.7259 54.8466 50.5233 54.6356 49.3542C54.4121 48.1934 54.2894 47.0154 54.269 45.8334Z" fill="white"/>
</svg>
