<svg width="121" height="120" viewBox="0 0 121 120" fill="none" xmlns="http://www.w3.org/2000/svg">
<path d="M44.4392 81.1701C44.0868 81.5246 43.8089 81.9459 43.6217 82.4094C43.4345 82.8729 43.3418 83.3691 43.3492 83.8689C43.3565 84.3687 43.4637 84.8619 43.6645 85.3197C43.8652 85.7775 44.1554 86.1905 44.5181 86.5345C44.8807 86.8785 45.3085 87.1465 45.7762 87.3228C46.2439 87.499 46.7422 87.58 47.2417 87.561C47.7411 87.542 48.2318 87.4232 48.6847 87.2119C49.1377 87.0005 49.5438 86.7007 49.8792 86.3301L72.3792 62.5801C73.0396 61.8834 73.4078 60.96 73.4078 60.0001C73.4078 59.0401 73.0396 58.1167 72.3792 57.4201L49.8792 33.6701C49.1887 32.9755 48.254 32.5785 47.2747 32.5641C46.2955 32.5497 45.3494 32.919 44.6389 33.593C43.9283 34.267 43.5096 35.1922 43.4723 36.1708C43.435 37.1495 43.782 38.1039 44.4392 38.8301L60.9392 56.2501H14.6592C13.6646 56.2501 12.7108 56.6451 12.0075 57.3484C11.3043 58.0517 10.9092 59.0055 10.9092 60.0001C10.9092 60.9946 11.3043 61.9484 12.0075 62.6517C12.7108 63.355 13.6646 63.7501 14.6592 63.7501H60.9392L44.4392 81.1701ZM110.909 60.0001C110.909 56.0218 109.329 52.2065 106.516 49.3935C103.703 46.5804 99.8874 45.0001 95.9092 45.0001C91.9309 45.0001 88.1156 46.5804 85.3026 49.3935C82.4895 52.2065 80.9092 56.0218 80.9092 60.0001C80.9092 63.9783 82.4895 67.7936 85.3026 70.6067C88.1156 73.4197 91.9309 75.0001 95.9092 75.0001C99.8874 75.0001 103.703 73.4197 106.516 70.6067C109.329 67.7936 110.909 63.9783 110.909 60.0001ZM103.409 60.0001C103.409 61.9892 102.619 63.8968 101.212 65.3034C99.806 66.7099 97.8983 67.5001 95.9092 67.5001C93.9201 67.5001 92.0124 66.7099 90.6059 65.3034C89.1994 63.8968 88.4092 61.9892 88.4092 60.0001C88.4092 58.0109 89.1994 56.1033 90.6059 54.6968C92.0124 53.2902 93.9201 52.5001 95.9092 52.5001C97.8983 52.5001 99.806 53.2902 101.212 54.6968C102.619 56.1033 103.409 58.0109 103.409 60.0001Z" fill="white"/>
</svg>
