<svg width="121" height="120" viewBox="0 0 121 120" fill="none" xmlns="http://www.w3.org/2000/svg">
<path d="M27.2119 35.0003C27.2119 32.1253 28.5244 29.6128 30.4369 27.5836C32.3327 25.5753 34.9327 23.9045 37.9077 22.5753C43.8619 19.9045 51.8661 18.3336 60.5452 18.3336C69.2244 18.3336 77.2286 19.9045 83.1827 22.5753C86.1577 23.9086 88.7577 25.5753 90.6536 27.5836C92.5661 29.6128 93.8786 32.1253 93.8786 35.0003V85.0003C93.8786 87.8753 92.5661 90.3878 90.6536 92.417C88.7577 94.4253 86.1577 96.0961 83.1827 97.4295C77.2286 100.096 69.2244 101.667 60.5452 101.667C51.8661 101.667 43.8619 100.096 37.9077 97.4295C34.9327 96.0961 32.3327 94.4295 30.4369 92.417C28.5244 90.3878 27.2119 87.8753 27.2119 85.0003V35.0003ZM33.4619 35.0003C33.4619 35.8628 33.8369 36.917 34.9827 38.1253C36.1452 39.3586 37.9702 40.6086 40.4619 41.7253C45.4411 43.9545 52.5411 45.417 60.5452 45.417C68.5494 45.417 75.6494 43.9586 80.6286 41.7253C83.1202 40.6086 84.9452 39.3586 86.1077 38.1253C87.2536 36.917 87.6286 35.8628 87.6286 35.0003C87.6286 34.1378 87.2536 33.0836 86.1077 31.8753C84.9452 30.642 83.1202 29.392 80.6286 28.2753C75.6494 26.0461 68.5452 24.5836 60.5452 24.5836C52.5411 24.5836 45.4411 26.042 40.4619 28.2753C37.9702 29.392 36.1452 30.642 34.9827 31.8753C33.8369 33.0836 33.4619 34.1378 33.4619 35.0003ZM87.6286 44.967C86.2952 45.8836 84.7952 46.7045 83.1827 47.4253C77.2286 50.0961 69.2244 51.667 60.5452 51.667C51.8661 51.667 43.8619 50.0961 37.9077 47.4253C36.3552 46.7406 34.8673 45.9179 33.4619 44.967V85.0003C33.4619 85.8628 33.8369 86.917 34.9827 88.1253C36.1452 89.3586 37.9702 90.6086 40.4619 91.7253C45.4411 93.9545 52.5411 95.417 60.5452 95.417C68.5494 95.417 75.6494 93.9586 80.6286 91.7253C83.1202 90.6086 84.9452 89.3586 86.1077 88.1253C87.2536 86.917 87.6286 85.8628 87.6286 85.0003V44.967Z" fill="white"/>
</svg>
